<?xml version="1.0" encoding="UTF-8"?>
<svg xmlns="http://www.w3.org/2000/svg" version="1.1" viewBox="0 0 631 212">
  <defs>
    <style>
      .cls-1 {
        fill: none;
      }

      .cls-2 {
        fill: #c7e039;
      }
    </style>
  </defs>
  <!-- Generator: Adobe Illustrator 28.7.1, SVG Export Plug-In . SVG Version: 1.2.0 Build 142)  -->
  <g>
    <g id="Layer_2">
      <g>
        <path class="cls-2" d="M4,102.6c0-14.3,4.8-26.2,14.5-35.5,9.7-9.3,22.7-13.9,39.2-13.9s33,5.5,42.6,16.4c7.7,8.8,11.6,19.6,11.6,32.5s-4.8,26.3-14.4,35.6c-9.6,9.2-22.8,13.9-39.8,13.9s-27.3-3.8-36.6-11.5c-11.4-9.5-17.2-21.9-17.2-37.4h0,0ZM40.2,102.5c0,8.4,1.7,14.6,5.1,18.6,3.4,4,7.7,6,12.8,6s9.4-2,12.8-5.9c3.3-4,5-10.3,5-19.1s-1.7-14.2-5-18.2-7.5-6-12.5-6-9.6,2-13,6.1c-3.4,4-5.1,10.2-5.1,18.4h0s0,0,0,0Z"/>
        <path class="cls-2" d="M116.8,185.1V55.4h33.8v13.8c4.7-5.8,8.9-9.8,12.8-11.8,5.2-2.8,11.1-4.2,17.4-4.2,12.6,0,22.3,4.8,29.1,14.4,6.9,9.6,10.3,21.5,10.3,35.7s-3.8,27.6-11.2,35.8c-7.5,8.2-16.9,12.4-28.4,12.4s-10.6-.9-15.2-2.8c-4.6-1.9-8.6-4.7-12.2-8.4v44.8h-36.4,0,0ZM152.9,102.5c0,7.4,1.6,13,4.7,16.6,3.1,3.6,7.1,5.4,11.8,5.4s7.7-1.7,10.5-5.2c2.8-3.5,4.2-9.3,4.2-17.6s-1.5-13.2-4.4-16.8c-2.9-3.6-6.5-5.4-10.8-5.4s-8.4,1.8-11.5,5.4c-3.1,3.6-4.6,9.4-4.6,17.6h0Z"/>
        <path class="cls-2" d="M270.7,19.6v35.7h19.8v26.4h-19.8v33.3c0,4,.4,6.7,1.1,7.9,1.2,2,3.2,3,6.2,3s6.4-.8,11.1-2.3l2.6,24.8c-8.9,2-17.2,2.9-25,2.9s-15.6-1.2-19.8-3.4c-4.2-2.3-7.4-5.8-9.4-10.5-2-4.7-3.1-12.3-3.1-22.7v-33h-13.3v-26.4h13.3v-17.3l36.2-18.5h0Z"/>
        <path class="cls-2" d="M326.9,25.3v13.2h-24.7v-13.2h24.7M326.9,61v82.6h-24.7V61h24.7M332.6,19.6h-36v24.5h36v-24.5h0ZM332.6,55.3h-36v93.9h36V55.4h0Z"/>
        <path class="cls-2" d="M338.7,55.4h33.7v13.7c4.9-5.7,9.7-9.8,14.7-12.2s10.9-3.6,17.9-3.6,13.5,1.3,17.8,4c4.4,2.7,8,6.6,10.7,11.8,5.7-6.1,10.8-10.3,15.5-12.5,4.7-2.2,10.4-3.3,17.3-3.3,10.1,0,18,3,23.6,9,5.7,6,8.5,15.3,8.5,28.1v59h-36.2v-53.6c0-4.2-.8-7.4-2.5-9.5-2.4-3.2-5.4-4.9-9-4.9s-7.6,1.5-10.2,4.6-3.9,8-3.9,14.8v48.6h-36.1v-51.8c0-4.1-.2-6.9-.7-8.4-.8-2.3-2.1-4.2-4-5.7s-4.1-2.2-6.7-2.2c-4.1,0-7.5,1.6-10.2,4.7s-4,8.2-4,15.4v48h-36.1V55.4h0Z"/>
        <path class="cls-2" d="M612.1,111.3h-72.2c.7,5.8,2.2,10.1,4.7,13,3.5,4.1,8,6.1,13.6,6.1s6.9-.9,10.1-2.7c1.9-1.1,4-3.1,6.3-6l35.5,3.2c-5.4,9.5-12,16.3-19.7,20.4s-18.7,6.2-33,6.2-22.2-1.8-29.4-5.3-13.1-9.1-17.7-16.7c-4.7-7.6-7-16.6-7-27,0-14.7,4.7-26.6,14.1-35.7,9.4-9.1,22.4-13.6,39-13.6s24.1,2,31.8,6.1c7.8,4.1,13.7,10,17.8,17.7,4.1,7.7,6.1,17.8,6.1,30.2v4.1h0ZM575.5,94.1c-.7-7-2.6-12-5.6-15-3-3-7-4.5-12-4.5s-10.3,2.3-13.7,6.8c-2.2,2.8-3.6,7.1-4.1,12.7h35.4,0Z"/>
        <path class="cls-2" d="M628,49.5c0,6.3-5,11.3-11.5,11.3s-11.6-5-11.6-11.3,5.1-11.2,11.6-11.2,11.4,4.9,11.4,11.2h0ZM607.8,49.5c0,5,3.8,9,8.8,9,4.8,0,8.5-4,8.5-8.9s-3.7-9-8.7-9-8.6,4-8.6,9h0ZM614.7,55.3h-2.6v-11.2c1-.1,2.5-.3,4.3-.3s3.1.3,3.8.9c.7.5,1.2,1.3,1.2,2.4s-1,2.3-2.3,2.7h0c1.1.5,1.6,1.4,2,2.9.3,1.7.6,2.3.8,2.7h-2.7c-.3-.4-.5-1.4-.9-2.7-.2-1.2-.9-1.7-2.3-1.7h-1.2v4.4h0,0ZM614.8,49h1.2c1.5,0,2.6-.5,2.6-1.6s-.8-1.7-2.4-1.7-1.2,0-1.4.1v3.2h0Z"/>
      </g>
      <rect class="cls-1" width="631" height="212"/>
    </g>
  </g>
</svg>